<svg width="40" height="40" viewBox="0 0 40 40" fill="none" xmlns="http://www.w3.org/2000/svg">
<mask id="mask0_3255_2805" style="mask-type:alpha" maskUnits="userSpaceOnUse" x="0" y="0" width="40" height="40">
<rect x="-6.10352e-05" width="40" height="40" fill="#D9D9D9"/>
</mask>
<g mask="url(#mask0_3255_2805)">
<path d="M17.6666 27.6663L29.4166 15.9163L27.0833 13.583L17.6666 22.9997L12.9166 18.2497L10.5833 20.583L17.6666 27.6663ZM19.9999 36.6663C17.6944 36.6663 15.5277 36.2288 13.4999 35.3538C11.4721 34.4788 9.70825 33.2913 8.20825 31.7913C6.70825 30.2913 5.52075 28.5275 4.64575 26.4997C3.77075 24.4719 3.33325 22.3052 3.33325 19.9997C3.33325 17.6941 3.77075 15.5275 4.64575 13.4997C5.52075 11.4719 6.70825 9.70801 8.20825 8.20801C9.70825 6.70801 11.4721 5.52051 13.4999 4.64551C15.5277 3.77051 17.6944 3.33301 19.9999 3.33301C22.3055 3.33301 24.4721 3.77051 26.4999 4.64551C28.5277 5.52051 30.2916 6.70801 31.7916 8.20801C33.2916 9.70801 34.4791 11.4719 35.3541 13.4997C36.2291 15.5275 36.6666 17.6941 36.6666 19.9997C36.6666 22.3052 36.2291 24.4719 35.3541 26.4997C34.4791 28.5275 33.2916 30.2913 31.7916 31.7913C30.2916 33.2913 28.5277 34.4788 26.4999 35.3538C24.4721 36.2288 22.3055 36.6663 19.9999 36.6663ZM19.9999 33.333C23.7221 33.333 26.8749 32.0413 29.4583 29.458C32.0416 26.8747 33.3333 23.7219 33.3333 19.9997C33.3333 16.2775 32.0416 13.1247 29.4583 10.5413C26.8749 7.95801 23.7221 6.66634 19.9999 6.66634C16.2777 6.66634 13.1249 7.95801 10.5416 10.5413C7.95825 13.1247 6.66659 16.2775 6.66659 19.9997C6.66659 23.7219 7.95825 26.8747 10.5416 29.458C13.1249 32.0413 16.2777 33.333 19.9999 33.333Z" fill="#37C976"/>
</g>
</svg>
