<svg width="32" height="32" viewBox="0 0 32 32" fill="none" xmlns="http://www.w3.org/2000/svg">
<mask id="mask0_2881_6234" style="mask-type:alpha" maskUnits="userSpaceOnUse" x="0" y="0" width="32" height="32">
<rect width="32" height="32" fill="#D9D9D9"/>
</mask>
<g mask="url(#mask0_2881_6234)">
<path d="M17.3332 19.2003L19.1998 17.3337L15.9998 14.1337V8.00033H13.3332V15.2003L17.3332 19.2003ZM12.2665 23.7003C12.6221 22.6337 13.2498 21.7503 14.1498 21.0503C15.0498 20.3503 16.0887 20.0003 17.2665 20.0003H22.3332C22.8665 19.2448 23.2776 18.417 23.5665 17.517C23.8554 16.617 23.9998 15.667 23.9998 14.667C23.9998 12.067 23.0943 9.86144 21.2832 8.05033C19.4721 6.23921 17.2665 5.33366 14.6665 5.33366C12.0665 5.33366 9.86095 6.23921 8.04984 8.05033C6.23873 9.86144 5.33317 12.067 5.33317 14.667C5.33317 16.8448 5.98317 18.7614 7.28317 20.417C8.58317 22.0725 10.2443 23.167 12.2665 23.7003ZM17.3332 30.667C16.0443 30.667 14.9109 30.2614 13.9332 29.4503C12.9554 28.6392 12.3443 27.6226 12.0998 26.4003C9.38873 25.8225 7.13873 24.4448 5.34984 22.267C3.56095 20.0892 2.6665 17.5559 2.6665 14.667C2.6665 11.3337 3.83317 8.50033 6.1665 6.16699C8.49984 3.83366 11.3332 2.66699 14.6665 2.66699C17.9998 2.66699 20.8332 3.83366 23.1665 6.16699C25.4998 8.50033 26.6665 11.3337 26.6665 14.667C26.6665 15.6225 26.5609 16.5503 26.3498 17.4503C26.1387 18.3503 25.8332 19.2003 25.4332 20.0003C26.8998 20.0003 28.1387 20.5225 29.1498 21.567C30.161 22.6114 30.6665 23.867 30.6665 25.3337C30.6665 26.8003 30.1443 28.0559 29.0998 29.1003C28.0554 30.1448 26.7998 30.667 25.3332 30.667H17.3332ZM17.3332 28.0003H25.3332C26.0665 28.0003 26.6943 27.7392 27.2165 27.217C27.7387 26.6948 27.9998 26.067 27.9998 25.3337C27.9998 24.6003 27.7387 23.9725 27.2165 23.4503C26.6943 22.9281 26.0665 22.667 25.3332 22.667H17.3332C16.5998 22.667 15.9721 22.9281 15.4498 23.4503C14.9276 23.9725 14.6665 24.6003 14.6665 25.3337C14.6665 26.067 14.9276 26.6948 15.4498 27.217C15.9721 27.7392 16.5998 28.0003 17.3332 28.0003ZM17.3332 26.667C16.9554 26.667 16.6387 26.5392 16.3832 26.2837C16.1276 26.0281 15.9998 25.7114 15.9998 25.3337C15.9998 24.9559 16.1276 24.6392 16.3832 24.3837C16.6387 24.1281 16.9554 24.0003 17.3332 24.0003C17.7109 24.0003 18.0276 24.1281 18.2832 24.3837C18.5387 24.6392 18.6665 24.9559 18.6665 25.3337C18.6665 25.7114 18.5387 26.0281 18.2832 26.2837C18.0276 26.5392 17.7109 26.667 17.3332 26.667ZM21.3332 26.667C20.9554 26.667 20.6387 26.5392 20.3832 26.2837C20.1276 26.0281 19.9998 25.7114 19.9998 25.3337C19.9998 24.9559 20.1276 24.6392 20.3832 24.3837C20.6387 24.1281 20.9554 24.0003 21.3332 24.0003C21.7109 24.0003 22.0276 24.1281 22.2832 24.3837C22.5387 24.6392 22.6665 24.9559 22.6665 25.3337C22.6665 25.7114 22.5387 26.0281 22.2832 26.2837C22.0276 26.5392 21.7109 26.667 21.3332 26.667ZM25.3332 26.667C24.9554 26.667 24.6387 26.5392 24.3832 26.2837C24.1276 26.0281 23.9998 25.7114 23.9998 25.3337C23.9998 24.9559 24.1276 24.6392 24.3832 24.3837C24.6387 24.1281 24.9554 24.0003 25.3332 24.0003C25.7109 24.0003 26.0276 24.1281 26.2832 24.3837C26.5387 24.6392 26.6665 24.9559 26.6665 25.3337C26.6665 25.7114 26.5387 26.0281 26.2832 26.2837C26.0276 26.5392 25.7109 26.667 25.3332 26.667Z" fill="#524393"/>
</g>
</svg>
