<svg width="29" height="24" viewBox="0 0 29 24" fill="none" xmlns="http://www.w3.org/2000/svg">
<mask id="mask0_2007_3341" style="mask-type:alpha" maskUnits="userSpaceOnUse" x="0" y="0" width="25" height="24">
<rect x="0.5" width="24" height="24" fill="#D9D9D9"/>
</mask>
<g mask="url(#mask0_2007_3341)">
<path d="M12.5 16C13.75 16 14.8125 15.5625 15.6875 14.6875C16.5625 13.8125 17 12.75 17 11.5C17 10.25 16.5625 9.1875 15.6875 8.3125C14.8125 7.4375 13.75 7 12.5 7C11.25 7 10.1875 7.4375 9.3125 8.3125C8.4375 9.1875 8 10.25 8 11.5C8 12.75 8.4375 13.8125 9.3125 14.6875C10.1875 15.5625 11.25 16 12.5 16ZM12.5 14.2C11.75 14.2 11.1125 13.9375 10.5875 13.4125C10.0625 12.8875 9.8 12.25 9.8 11.5C9.8 10.75 10.0625 10.1125 10.5875 9.5875C11.1125 9.0625 11.75 8.8 12.5 8.8C13.25 8.8 13.8875 9.0625 14.4125 9.5875C14.9375 10.1125 15.2 10.75 15.2 11.5C15.2 12.25 14.9375 12.8875 14.4125 13.4125C13.8875 13.9375 13.25 14.2 12.5 14.2ZM12.5 19C10.0667 19 7.85 18.3208 5.85 16.9625C3.85 15.6042 2.4 13.7833 1.5 11.5C2.4 9.21667 3.85 7.39583 5.85 6.0375C7.85 4.67917 10.0667 4 12.5 4C14.9333 4 17.15 4.67917 19.15 6.0375C21.15 7.39583 22.6 9.21667 23.5 11.5C22.6 13.7833 21.15 15.6042 19.15 16.9625C17.15 18.3208 14.9333 19 12.5 19ZM12.5 17C14.3833 17 16.1125 16.5042 17.6875 15.5125C19.2625 14.5208 20.4667 13.1833 21.3 11.5C20.4667 9.81667 19.2625 8.47917 17.6875 7.4875C16.1125 6.49583 14.3833 6 12.5 6C10.6167 6 8.8875 6.49583 7.3125 7.4875C5.7375 8.47917 4.53333 9.81667 3.7 11.5C4.53333 13.1833 5.7375 14.5208 7.3125 15.5125C8.8875 16.5042 10.6167 17 12.5 17Z" fill="#524393"/>
</g>
</svg>
