<svg width="32" height="32" viewBox="0 0 32 32" fill="none" xmlns="http://www.w3.org/2000/svg">
<mask id="mask0_2007_1288" style="mask-type:alpha" maskUnits="userSpaceOnUse" x="0" y="0" width="32" height="32">
<rect width="32" height="32" fill="#D9D9D9"/>
</mask>
<g mask="url(#mask0_2007_1288)">
<path d="M9.86699 29.3333L8.00033 27.4667L17.2003 18.2333L21.867 22.9L28.767 16L30.667 17.9L21.867 26.6667L17.2003 22L9.86699 29.3333ZM5.33366 28C4.60033 28 3.97255 27.7389 3.45033 27.2167C2.9281 26.6944 2.66699 26.0667 2.66699 25.3333V6.66667C2.66699 5.93333 2.9281 5.30556 3.45033 4.78333C3.97255 4.26111 4.60033 4 5.33366 4H24.0003C24.7337 4 25.3614 4.26111 25.8837 4.78333C26.4059 5.30556 26.667 5.93333 26.667 6.66667V12.2667H5.33366V28ZM5.33366 9.6H24.0003V6.66667H5.33366V9.6Z" fill="#E6ECF1"/>
</g>
</svg>
