<svg width="32" height="32" viewBox="0 0 32 32" fill="none" xmlns="http://www.w3.org/2000/svg">
<mask id="mask0_2007_1281" style="mask-type:alpha" maskUnits="userSpaceOnUse" x="0" y="0" width="32" height="32">
<rect width="32" height="32" fill="#D9D9D9"/>
</mask>
<g mask="url(#mask0_2007_1281)">
<path d="M16.9337 18.7334L24.467 11.2001L22.6003 9.26675L16.9337 14.9334L14.067 12.1334L12.2003 14.0001L16.9337 18.7334ZM10.667 24.0001C9.93366 24.0001 9.30588 23.739 8.78366 23.2167C8.26144 22.6945 8.00033 22.0667 8.00033 21.3334V5.33341C8.00033 4.60008 8.26144 3.9723 8.78366 3.45008C9.30588 2.92786 9.93366 2.66675 10.667 2.66675H26.667C27.4003 2.66675 28.0281 2.92786 28.5503 3.45008C29.0725 3.9723 29.3337 4.60008 29.3337 5.33341V21.3334C29.3337 22.0667 29.0725 22.6945 28.5503 23.2167C28.0281 23.739 27.4003 24.0001 26.667 24.0001H10.667ZM10.667 21.3334H26.667V5.33341H10.667V21.3334ZM5.33366 29.3334C4.60033 29.3334 3.97255 29.0723 3.45033 28.5501C2.9281 28.0279 2.66699 27.4001 2.66699 26.6667V8.00008H5.33366V26.6667H24.0003V29.3334H5.33366Z" fill="#E6ECF1"/>
</g>
</svg>
