<svg width="45" height="69" viewBox="0 0 45 69" fill="none" xmlns="http://www.w3.org/2000/svg">
<path d="M28.4152 30.4307H17.0549V29.1506C17.0549 28.7896 17.2354 28.5658 17.5963 28.4792L17.7263 28.4575L18.0511 28.3926L18.7008 28.2843V16.9023L18.0511 16.794C17.9789 16.7796 17.9188 16.7652 17.8658 16.7507C17.8153 16.7363 17.7696 16.7291 17.7239 16.7291L17.5939 16.7074C17.233 16.6208 17.0525 16.397 17.0525 16.036V14.7559H23.2536V16.036C23.2536 16.397 23.0707 16.6208 22.7122 16.7074L22.5823 16.7291L22.2574 16.794L21.6077 16.9023V28.0244H26.661C26.7043 27.4469 26.7332 27.1365 26.7476 27.0931C26.8198 26.8188 26.9858 26.6817 27.2457 26.6817H28.4152V30.4331V30.4307Z" fill="white"/>
<path d="M37.6351 6.93747C37.6351 7.64253 38.1043 8.11417 38.8118 8.11417C39.5193 8.11417 39.9885 7.64493 39.9885 6.93747C39.9885 3.17396 36.8146 0 33.051 0H6.93747C3.17396 0 0 3.17396 0 6.93747V61.2726C0 65.1516 3.17396 68.21 6.93747 68.21H33.0462C36.9252 68.21 39.9837 65.0361 39.9837 61.2726V44.6905C39.9837 43.9854 39.5121 43.5138 38.807 43.5138C38.1019 43.5138 37.6303 43.983 37.6303 44.6905V61.2726C37.6303 63.8594 35.5127 65.859 33.0438 65.859H6.93747C4.35066 65.859 2.35099 63.7415 2.35099 61.2726V6.93747C2.35099 4.46857 4.46857 2.35099 6.93747 2.35099H33.0462C35.5151 2.35099 37.6327 4.46857 37.6327 6.93747" fill="#6559A3"/>
<path d="M26.4626 7.05585C26.4626 6.35079 25.9934 5.87915 25.2859 5.87915H14.7004C13.9954 5.87915 13.5237 6.34839 13.5237 7.05585C13.5237 7.76331 13.993 8.23255 14.7004 8.23255H25.2859C25.991 8.23255 26.4626 7.76331 26.4626 7.05585Z" fill="white"/>
<path d="M23.031 60.2743C23.031 61.9515 21.6714 63.3135 19.9918 63.3135C18.3122 63.3135 16.9526 61.9539 16.9526 60.2743C16.9526 58.5947 18.3122 57.2351 19.9918 57.2351C21.6714 57.2351 23.031 58.5947 23.031 60.2743Z" fill="white"/>
<path d="M43.8233 21.4165H39.7061V17.2993C39.7061 16.5942 39.2368 16.1226 38.5294 16.1226C37.8219 16.1226 37.3527 16.5918 37.3527 17.2993V21.4165H33.2354C32.5304 21.4165 32.0587 21.8857 32.0587 22.5932C32.0587 23.3007 32.5279 23.7699 33.2354 23.7699H37.3527V27.8871C37.3527 28.5922 37.8219 29.0638 38.5294 29.0638C39.2368 29.0638 39.7061 28.5946 39.7061 27.8871V23.7699H43.8233C44.5284 23.7699 45 23.3007 45 22.5932C45 21.8857 44.5308 21.4165 43.8233 21.4165Z" fill="#37D68F"/>
</svg>
