<svg width="193" height="100" viewBox="0 0 193 100" fill="none" xmlns="http://www.w3.org/2000/svg">
<g clip-path="url(#clip0_2219_908)">
<path d="M27.5774 44.6129H10.9225V42.7361C10.9225 42.2069 11.1871 41.8788 11.7162 41.7518L11.9067 41.7201L12.383 41.6248L13.3355 41.4661V24.7794L12.383 24.6206C12.2772 24.5995 12.189 24.5783 12.1114 24.5571C12.0373 24.536 11.9702 24.5254 11.9032 24.5254L11.7127 24.4936C11.1835 24.3666 10.9189 24.0386 10.9189 23.5094V21.6326H20.0102V23.5094C20.0102 24.0386 19.7421 24.3666 19.2164 24.4936L19.0259 24.5254L18.5497 24.6206L17.5971 24.7794V41.0851H25.0056C25.0691 40.2384 25.1114 39.7833 25.1326 39.7198C25.2384 39.3176 25.4818 39.1165 25.8628 39.1165H27.5774V44.6164V44.6129Z" fill="white"/>
<path d="M45.7878 27.6722H43.9428C43.5617 27.6722 43.3183 27.4712 43.2125 27.069C43.1031 26.2435 43.029 25.5626 42.9902 25.0334H35.5853V31.3906H43.3712V34.6962H35.5853V41.1803H42.9902C43.0326 40.6512 43.1067 39.9738 43.2125 39.1483C43.3183 38.7461 43.5617 38.545 43.9428 38.545H45.7878V44.6164H28.8789V42.7432C28.8789 42.214 29.1435 41.8824 29.6727 41.7589L29.8632 41.7271C29.9267 41.7271 29.9972 41.7166 30.0713 41.6954C30.1454 41.6742 30.2371 41.6531 30.343 41.6319L31.2955 41.4731V24.7865L30.343 24.6277C30.2371 24.6066 30.1454 24.5854 30.0713 24.5642C29.9972 24.5431 29.9302 24.5325 29.8632 24.5325L29.6727 24.5007C29.14 24.3737 28.8789 24.0456 28.8789 23.5165V21.6396H45.7878V27.6793V27.6722Z" fill="white"/>
<path d="M71.6924 42.9901V44.6129H63.9382V42.9901C63.9382 42.6302 64.1499 42.3551 64.5732 42.1646L65.2082 41.9106L63.9382 38.4462H54.7835L53.5135 41.9106L54.1485 42.1646C54.5718 42.3551 54.7835 42.6302 54.7835 42.9901V44.6129H47.0293V42.9901C47.0293 42.6302 47.241 42.3551 47.6643 42.1646L49.4141 41.4343L57.1683 21.6326H61.5534L69.3393 41.4343L71.0891 42.1646C71.4913 42.3127 71.6924 42.5879 71.6924 42.9901ZM62.8552 35.4264L60.2163 28.2755C59.9623 27.577 59.6766 26.6738 59.3591 25.5732L59.0733 26.5574C58.904 27.1289 58.7135 27.711 58.5018 28.3072L55.8947 35.4264H62.8552Z" fill="white"/>
<path d="M95.4069 33.1051C95.4069 34.802 95.1211 36.3472 94.5496 37.7442C93.9534 39.2047 93.1702 40.4253 92.1965 41.399C91.2229 42.3727 89.9952 43.1594 88.51 43.7521C87.0882 44.3236 85.5113 44.6094 83.7721 44.6094H72.9346V42.7361C72.9346 42.2069 73.1992 41.8788 73.7283 41.7518L73.9188 41.7201C73.9823 41.7201 74.0529 41.7095 74.127 41.6883C74.2011 41.6671 74.2893 41.646 74.3951 41.6248L75.3476 41.4661V24.7794L74.3951 24.6206C74.2893 24.5995 74.2011 24.5783 74.127 24.5571C74.0529 24.536 73.9823 24.5254 73.9188 24.5254L73.7283 24.4936C73.1992 24.3666 72.9346 24.0386 72.9346 23.5094V21.6326H83.7721C85.5078 21.6326 87.0882 21.9183 88.51 22.4898C89.9916 23.086 91.2229 23.8692 92.1965 24.8429C93.1702 25.8166 93.9569 27.0266 94.5496 28.466C95.1211 29.863 95.4069 31.4117 95.4069 33.1051ZM91.0182 33.1051C91.0182 31.8527 90.8489 30.7309 90.5102 29.736C90.1292 28.6777 89.653 27.8274 89.0779 27.1924C88.4641 26.5363 87.7021 26.0036 86.7884 25.6014C85.8994 25.2204 84.8939 25.0299 83.7685 25.0299H79.6375V41.2085H83.7685C84.8904 41.2085 85.8994 41.018 86.7884 40.637C87.6986 40.2348 88.4641 39.7057 89.0779 39.046C89.6706 38.3898 90.1469 37.5396 90.5102 36.5024C90.8489 35.5075 91.0182 34.3751 91.0182 33.1016" fill="white"/>
<path d="M111.486 37.4303C111.486 38.404 111.306 39.3706 110.946 40.3231C110.587 41.2545 110.068 42.0482 109.391 42.708C108.713 43.3853 107.874 43.9145 106.879 44.2955C105.905 44.6765 104.78 44.867 103.51 44.867H103.034C101.019 44.867 98.8283 44.4648 96.4541 43.6605V37.7478H98.2639C98.6661 37.7478 98.9095 37.9383 98.9941 38.3193C99.0576 38.5945 99.1529 39.4729 99.2799 40.9581C100.169 41.2333 101.622 41.3709 103.633 41.3709C104.84 41.3709 105.782 41.0851 106.463 40.5136C107.119 39.9421 107.447 39.1166 107.447 38.0336C107.447 37.4409 107.299 36.9435 107.002 36.5378C106.727 36.1568 106.325 35.8393 105.796 35.5853C105.267 35.3101 104.702 35.0878 104.109 34.9185L103.411 34.728L102.173 34.347C101.538 34.1353 100.889 33.8813 100.232 33.585C99.6362 33.3098 99.0647 32.9182 98.5144 32.4067C98.0063 31.941 97.6148 31.3483 97.3396 30.6286C97.0221 29.8455 96.8633 28.9635 96.8633 27.9898C96.8633 27.122 97.0327 26.3035 97.3713 25.5415C97.6888 24.7372 98.1757 24.0281 98.8354 23.4107C99.4492 22.8392 100.232 22.3523 101.188 21.9502C102.12 21.5692 103.192 21.3787 104.399 21.3787C106.625 21.3787 108.816 21.8126 110.978 22.6804V28.5613H109.168C108.787 28.5613 108.544 28.3602 108.438 27.9545C108.375 27.6582 108.279 26.8009 108.152 25.3792C107.39 25.0406 106.149 24.8712 104.434 24.8712C103.863 24.8712 103.355 24.9347 102.907 25.0617C102.42 25.2311 102.049 25.4321 101.795 25.665C101.478 25.9402 101.245 26.2471 101.097 26.5857C100.949 26.9033 100.874 27.2948 100.874 27.764C100.874 28.2721 101.033 28.7166 101.351 29.0976C101.668 29.4786 102.06 29.789 102.526 30.0219C103.139 30.3182 103.714 30.551 104.244 30.7204C104.455 30.7839 105.101 30.9955 106.184 31.3554C106.628 31.5035 107.274 31.7681 108.121 32.1491C108.756 32.4243 109.331 32.8053 109.839 33.2922C110.389 33.8002 110.791 34.3611 111.045 34.9785C111.342 35.5923 111.49 36.4108 111.49 37.4268" fill="white"/>
<path d="M131.546 27.0654H129.736C129.334 27.0654 129.08 26.8643 128.97 26.4622C128.907 26.1023 128.854 25.6684 128.812 25.1604H124.141V41.4661L125.061 41.6248C125.167 41.646 125.255 41.6671 125.333 41.6883C125.407 41.7095 125.474 41.7201 125.541 41.7201L125.732 41.7518C126.282 41.8788 126.557 42.2069 126.557 42.7361V44.6094H117.466V42.7361C117.466 42.2069 117.731 41.8753 118.26 41.7518L118.45 41.7201C118.514 41.7201 118.584 41.7095 118.658 41.6883C118.733 41.6671 118.821 41.646 118.927 41.6248L119.851 41.4661V25.1287H115.176C115.134 25.679 115.081 26.1235 115.018 26.4657C114.912 26.8679 114.668 27.069 114.287 27.069H112.442V21.6326H131.546V27.069V27.0654Z" fill="white"/>
<path d="M149.597 27.6722H147.752C147.371 27.6722 147.128 27.4712 147.022 27.069C146.916 26.2435 146.842 25.5626 146.8 25.0334H139.395V31.3906H147.181V34.6962H139.395V41.1803H146.8C146.842 40.6512 146.916 39.9738 147.022 39.1483C147.128 38.7461 147.371 38.545 147.752 38.545H149.597V44.6164H132.688V42.7432C132.688 42.214 132.953 41.8824 133.482 41.7589L133.673 41.7271C133.736 41.7271 133.807 41.7166 133.881 41.6954C133.955 41.6742 134.047 41.6531 134.153 41.6319L135.105 41.4731V24.7865L134.153 24.6277C134.047 24.6066 133.955 24.5854 133.881 24.5642C133.807 24.5431 133.736 24.5325 133.673 24.5325L133.482 24.5007C132.953 24.3737 132.688 24.0456 132.688 23.5165V21.6396H149.597V27.6793V27.6722Z" fill="white"/>
<path d="M171.498 42.7397V44.613H167.208C166.806 44.613 166.489 44.5389 166.256 44.3908C166.023 44.2426 165.811 44.0309 165.621 43.7558L160.791 36.3826C160.622 36.1286 160.421 35.9381 160.188 35.8111C159.955 35.6841 159.638 35.6206 159.232 35.6206H157.613V41.4697L158.565 41.6285C158.671 41.6496 158.759 41.6708 158.837 41.692C158.911 41.7131 158.978 41.7237 159.045 41.7237L159.236 41.7555C159.765 41.8825 160.029 42.2106 160.029 42.7397V44.613H150.938V42.7397C150.938 42.2106 151.203 41.8789 151.732 41.7555L151.922 41.7237L152.399 41.6285L153.351 41.4697V24.7831L152.399 24.6243C152.293 24.6031 152.201 24.582 152.127 24.5608C152.053 24.5396 151.982 24.5291 151.919 24.5291L151.728 24.4973C151.199 24.3703 150.935 24.0422 150.935 23.513V21.6362H160.121C161.687 21.6362 163.035 21.795 164.157 22.1125C165.24 22.43 166.15 22.8851 166.891 23.4778C167.632 24.0916 168.161 24.7901 168.482 25.5768C168.821 26.3812 168.99 27.2737 168.99 28.2474C168.99 28.9671 168.874 29.7009 168.641 30.4417C168.45 31.0555 168.122 31.68 167.657 32.3185C167.275 32.8477 166.746 33.3345 166.065 33.779C165.409 34.2024 164.69 34.541 163.903 34.7951C164.453 35.1126 164.919 35.5606 165.3 36.1321L168.923 41.4732L169.907 41.632C170.013 41.6532 170.115 41.6743 170.211 41.6955C170.306 41.7167 170.387 41.7272 170.451 41.7272L170.705 41.759C171.234 41.886 171.498 42.2141 171.498 42.7433M163.645 31.4224C164.005 31.0838 164.291 30.6604 164.503 30.1524C164.693 29.6656 164.788 29.1329 164.788 28.5614C164.788 27.3972 164.407 26.4941 163.645 25.859C162.905 25.2452 161.726 24.9348 160.118 24.9348H157.606V32.5619H160.054C160.774 32.5619 161.476 32.4561 162.153 32.2444C162.746 32.0539 163.243 31.7788 163.649 31.4189" fill="white"/>
<path d="M55.1753 10.1707C55.1753 11.2044 55.8633 11.8959 56.9004 11.8959C57.9376 11.8959 58.6255 11.2079 58.6255 10.1707C58.6255 4.65321 53.9723 0 48.4548 0H10.1707C4.65321 0 0 4.65321 0 10.1707V89.8293C0 95.5161 4.65321 100 10.1707 100H48.4478C54.1346 100 58.6185 95.3468 58.6185 89.8293V65.5189C58.6185 64.4853 57.927 63.7938 56.8934 63.7938C55.8597 63.7938 55.1683 64.4818 55.1683 65.5189V89.8293C55.1683 93.6217 52.0638 96.5533 48.4442 96.5533H10.1707C6.37832 96.5533 3.44669 93.4488 3.44669 89.8293V10.1707C3.44669 6.55119 6.55119 3.44669 10.1707 3.44669H48.4478C52.0673 3.44669 55.1718 6.55119 55.1718 10.1707" fill="#6559A3"/>
<path d="M38.7953 10.3435C38.7953 9.30986 38.1074 8.61841 37.0702 8.61841H21.5513C20.5176 8.61841 19.8262 9.30634 19.8262 10.3435C19.8262 11.3807 20.5141 12.0686 21.5513 12.0686H37.0702C38.1039 12.0686 38.7953 11.3807 38.7953 10.3435Z" fill="white"/>
<path d="M17.7452 54.699C17.7452 55.4151 17.4877 55.9725 16.9691 56.3676C16.4505 56.7627 15.7802 56.9638 14.9512 56.9638H11.3457V56.477C11.3457 56.3676 11.4021 56.2971 11.5115 56.2759L12.143 56.1419V49.8376L11.5115 49.7036C11.4021 49.6789 11.3457 49.6154 11.3457 49.5025V49.0156H14.6866C15.5509 49.0156 16.2353 49.1779 16.7327 49.5025C17.2337 49.8306 17.4841 50.3315 17.4841 51.0124C17.4841 51.4922 17.3607 51.8873 17.1172 52.1907C16.8738 52.4941 16.4999 52.7234 15.9954 52.8786C17.1631 53.1079 17.7487 53.7147 17.7487 54.699M14.6372 52.5682C15.1981 52.5682 15.6355 52.4588 15.9495 52.2401C16.26 52.0213 16.4152 51.6862 16.4152 51.2346C16.4152 50.7548 16.2706 50.4091 15.9778 50.1974C15.6849 49.9893 15.2545 49.8835 14.6866 49.8835H13.2225V52.5682H14.6442H14.6372ZM16.2212 53.6688C15.9142 53.4536 15.4874 53.3478 14.9406 53.3478H13.219V56.1101H14.9512C15.5332 56.1172 15.9707 55.9972 16.2564 55.7503C16.5422 55.5033 16.6833 55.1435 16.6833 54.6813C16.6833 54.2192 16.5281 53.884 16.2212 53.6724" fill="#37D68F"/>
<path d="M24.3597 51.8132C24.3597 51.9226 24.3032 51.9896 24.1939 52.0143C24.1656 52.0143 24.1198 52.0213 24.0669 52.0355C24.0104 52.0496 23.954 52.0637 23.894 52.0813L23.6153 52.1378L20.8318 58.6184C20.8036 58.6925 20.7577 58.7524 20.6942 58.7983C20.6307 58.8442 20.5602 58.8653 20.4755 58.8653H19.7453L20.7648 56.6357L18.7892 52.1307C18.567 52.0954 18.4011 52.0566 18.2918 52.0213C18.1824 51.9966 18.126 51.9331 18.126 51.8203V51.344H20.6449V51.8203C20.6449 51.9296 20.5884 51.9966 20.479 52.0213C20.405 52.0425 20.2003 52.0884 19.8581 52.1554L21.1105 55.0835C21.1458 55.1646 21.1776 55.2634 21.2058 55.3728C21.2305 55.4857 21.2481 55.5598 21.2552 55.595C21.3046 55.4151 21.3645 55.2458 21.4316 55.0835L22.6416 52.1554L22.0313 52.0355C21.929 52.0143 21.8761 51.9437 21.8761 51.8238V51.3581H23.9645L24.3632 51.3475V51.8238L24.3597 51.8132Z" fill="#37D68F"/>
<path d="M29.207 56.1526L29.8844 56.2866C29.9726 56.3113 30.0184 56.3748 30.0184 56.4877V56.964H27.3443V56.4877C27.3443 56.3678 27.3937 56.3007 27.4996 56.276L28.1416 56.1561V49.8201L27.4749 49.686C27.3867 49.6614 27.3408 49.5979 27.3408 49.485V49.0193H30.0149V49.485C30.0149 49.6049 29.9585 49.6719 29.8491 49.6966L29.207 49.8166V56.1526Z" fill="#37D68F"/>
<path d="M34.3226 51.2488C34.9294 51.2488 35.3951 51.4428 35.7196 51.8379C36.0371 52.2225 36.1959 52.7375 36.1959 53.3796V56.1419C36.5487 56.2089 36.7604 56.2512 36.8274 56.2759C36.9473 56.2971 37.0038 56.3677 37.0038 56.4876V56.9639H35.2046V53.3937C35.2046 52.4906 34.813 52.039 34.0298 52.039C33.4724 52.039 32.9644 52.3001 32.4987 52.8257V56.156C32.5305 56.156 32.7422 56.1983 33.1408 56.2901C33.2502 56.3112 33.3066 56.3818 33.3066 56.5017V56.9674H30.7207V56.5017C30.7207 56.3818 30.7701 56.3112 30.8759 56.2901L31.518 56.1701V52.1625C31.1476 52.0955 30.9359 52.0531 30.8759 52.0284C30.7736 52.0073 30.7207 51.9367 30.7207 51.8168V51.3511H32.0966C32.2306 51.3511 32.3188 51.4181 32.3647 51.5522L32.4529 52.1625V52.1519C33.0067 51.5522 33.6276 51.2523 34.3156 51.2523" fill="#37D68F"/>
<path d="M39.4621 50.9384V51.4605H41.0814V52.1696H39.4833V56.1525C39.8396 56.2054 40.0865 56.2442 40.2276 56.276C40.337 56.2972 40.3934 56.3677 40.3934 56.4841V56.9604H37.6417V56.4841C37.6417 56.3677 37.6982 56.2972 37.8075 56.276L38.4955 56.1525V52.1907L37.8746 52.1131C37.6946 52.0673 37.6064 51.9826 37.6064 51.8591V51.4605H38.4919V50.9172C38.4919 50.2646 38.6648 49.7671 39.0141 49.4179C39.3527 49.0721 39.8255 48.8958 40.4217 48.8958C40.6439 48.8958 40.8767 48.9346 41.1202 49.0086L41.0955 49.5061C41.0955 49.5731 41.0637 49.6154 40.9967 49.6401C40.9544 49.6542 40.8662 49.6648 40.7427 49.6648H40.5875C39.8325 49.6648 39.455 50.0917 39.455 50.9384" fill="#37D68F"/>
<path d="M45.1629 51.4605C45.491 51.5946 45.7732 51.7886 46.0167 52.0391C46.246 52.2754 46.4224 52.5788 46.5494 52.9492C46.6764 53.3126 46.7399 53.7113 46.7399 54.1487C46.7399 54.5862 46.6764 54.9848 46.5494 55.3482C46.4224 55.7186 46.246 56.022 46.0167 56.2584C45.7732 56.5088 45.4875 56.7029 45.1629 56.8334C44.8313 56.9674 44.4609 57.0345 44.0552 57.0345C43.6495 57.0345 43.2791 56.9674 42.9474 56.8334C42.6193 56.6993 42.3371 56.5088 42.0937 56.2584C41.8714 56.029 41.6915 55.7256 41.5504 55.3482C41.4305 55.0307 41.374 54.632 41.374 54.1487C41.374 53.6654 41.434 53.2667 41.5504 52.9492C41.6915 52.5718 41.8714 52.2684 42.0937 52.0391C42.3371 51.7886 42.6229 51.5946 42.9474 51.4605C43.2791 51.3264 43.6495 51.2629 44.0552 51.2629C44.4609 51.2629 44.8313 51.33 45.1629 51.4605ZM45.297 55.7221C45.5721 55.3376 45.7097 54.8155 45.7097 54.1558C45.7097 53.4961 45.5721 52.9775 45.297 52.5894C45.0394 52.219 44.6232 52.0355 44.0552 52.0355C43.7659 52.0355 43.5225 52.0814 43.3249 52.1696C43.1309 52.2578 42.9615 52.3989 42.8134 52.5929C42.6723 52.787 42.57 53.0057 42.5029 53.2597C42.4288 53.556 42.3936 53.8559 42.3936 54.1699C42.3936 54.4839 42.4288 54.7626 42.5029 55.0589C42.57 55.3094 42.6723 55.5316 42.8134 55.7257C42.9404 55.895 43.1097 56.029 43.3249 56.1243C43.5613 56.2301 43.8047 56.2795 44.0552 56.2795C44.6267 56.2795 45.0394 56.0961 45.297 55.7257" fill="#37D68F"/>
<path d="M50.8151 51.2383C51.1044 51.2383 51.3584 51.3053 51.5806 51.4394L51.4607 52.1802C51.436 52.279 51.3901 52.3249 51.316 52.3249C51.2666 52.3249 51.1749 52.3072 51.0479 52.2684C50.9244 52.2331 50.7692 52.212 50.5928 52.212C49.9402 52.212 49.4604 52.6036 49.1499 53.3903V56.1631L49.7814 56.2831C49.8908 56.3078 49.9472 56.3748 49.9472 56.4948V56.9604H47.3613V56.4948C47.3613 56.3748 47.4178 56.3078 47.5271 56.2831L48.1586 56.1631V52.1555C47.8058 52.0885 47.5942 52.0462 47.5271 52.0215C47.4178 52.0003 47.3613 51.9297 47.3613 51.8133V51.3476H48.7266C48.8289 51.3476 48.8995 51.3653 48.9347 51.4041C48.97 51.4394 49.0018 51.5134 49.0229 51.6158L49.09 52.4907H49.1005C49.5133 51.6546 50.0848 51.2383 50.8115 51.2383" fill="#37D68F"/>
<path d="M55.465 51.2594C55.8495 51.2594 56.16 51.3688 56.3963 51.5804C56.6256 51.7886 56.7985 52.0708 56.9079 52.4342C57.0701 52.032 57.3136 51.7392 57.6381 51.5451C57.9768 51.3511 58.3049 51.2559 58.6153 51.2559C58.9258 51.2559 59.2292 51.3053 59.4797 51.4005C59.716 51.4887 59.9171 51.6263 60.0794 51.8097C60.4039 52.1802 60.5662 52.7058 60.5662 53.3867V56.1596C60.9366 56.2266 61.1483 56.2689 61.2083 56.2936C61.3177 56.3148 61.3741 56.3818 61.3741 56.4947V56.9815H59.589V53.3973C59.589 52.9492 59.4938 52.6141 59.2997 52.3989C59.0916 52.1696 58.8129 52.0567 58.4566 52.0567C58.1003 52.0567 57.8357 52.166 57.6134 52.3883C57.37 52.6317 57.2465 52.9633 57.2465 53.3867V56.1596C57.2748 56.1666 57.3383 56.1843 57.4335 56.2054C57.5323 56.2301 57.6769 56.2583 57.878 56.2936C57.9874 56.3148 58.0438 56.3818 58.0438 56.4947V56.971H56.2587V53.3867C56.2587 52.5012 55.9024 52.0567 55.1933 52.0567C54.7347 52.0567 54.3184 52.3001 53.941 52.7869V56.1596L54.2408 56.216L54.5724 56.283C54.6818 56.3042 54.7382 56.3748 54.7382 56.4947V56.9604H52.1523V56.4947C52.1523 56.3748 52.2053 56.3042 52.3076 56.283L52.9496 56.1596V52.1555C52.5792 52.0884 52.364 52.0426 52.3076 52.0214C52.2053 52.0002 52.1523 51.9297 52.1523 51.8097V51.3441H53.5282C53.6623 51.3441 53.7505 51.4111 53.7963 51.5416L53.8739 52.1202V52.1308C54.3467 51.5487 54.8758 51.2559 55.4615 51.2559" fill="#37D68F"/>
<path d="M67.0143 56.3254C67.0425 56.3642 67.0601 56.4101 67.0601 56.463V56.9393H65.9065C65.8395 56.9393 65.7619 56.9252 65.6737 56.8934C65.6208 56.8793 65.5855 56.8193 65.5643 56.717L65.455 56.1843L65.0105 56.5512C64.8835 56.6535 64.7353 56.7452 64.566 56.8193C64.4037 56.8934 64.2379 56.9498 64.0756 56.9851C63.9274 57.0204 63.7299 57.0416 63.4794 57.0416C63.2712 57.0416 63.0702 57.0063 62.8797 56.9428C62.6503 56.8616 62.4845 56.7735 62.3822 56.6747C62.2482 56.5547 62.1388 56.3995 62.0506 56.209C61.9695 56.0397 61.9307 55.8174 61.9307 55.5422C61.9307 55.3059 61.9906 55.0907 62.1071 54.9002C62.2411 54.685 62.4387 54.5015 62.7068 54.3463C63.0031 54.177 63.3594 54.0429 63.7722 53.9477C64.1991 53.8489 64.7423 53.803 65.3915 53.803V53.3691C65.3915 52.9316 65.2927 52.6 65.1022 52.3707C64.9082 52.1414 64.6295 52.0285 64.2696 52.0285C64.0333 52.0285 63.8286 52.0638 63.6593 52.1273C63.4653 52.2014 63.3277 52.2684 63.236 52.3284C63.1901 52.3566 63.1407 52.3884 63.0878 52.4236C63.0313 52.4554 62.9749 52.4907 62.9149 52.5295C62.8338 52.5894 62.7491 52.6177 62.6609 52.6177C62.5798 52.6177 62.5198 52.6036 62.4845 52.5718C62.4387 52.5365 62.4034 52.4907 62.3752 52.4377L62.1988 52.1273C62.4881 51.8451 62.8197 51.6228 63.1972 51.4605C63.5358 51.3124 63.938 51.2383 64.3966 51.2383C64.7282 51.2383 65.0105 51.2877 65.2398 51.3935C65.4902 51.5029 65.6949 51.644 65.8501 51.8133C66.0124 51.9827 66.1394 52.2049 66.2276 52.4801C66.3087 52.7235 66.3475 53.0128 66.3475 53.3444V56.1526C66.7038 56.2266 66.8873 56.269 66.9014 56.276V56.2513C66.9543 56.2584 66.9966 56.2831 67.0249 56.3254M64.2061 54.5121C63.9239 54.565 63.6664 54.6426 63.43 54.7449C63.2219 54.8437 63.0737 54.9531 62.9855 55.0766C62.8973 55.2106 62.8514 55.3517 62.8514 55.4999C62.8514 55.6199 62.8761 55.7433 62.929 55.8774C62.9749 55.9867 63.0419 56.0785 63.1301 56.1455C63.2183 56.2125 63.3136 56.2619 63.4194 56.2901C63.5429 56.3254 63.6664 56.3466 63.7828 56.3466C63.9309 56.3466 64.0862 56.3289 64.2484 56.2901C64.3966 56.2549 64.5342 56.2055 64.6612 56.1455C64.7706 56.0926 64.894 56.0114 65.0246 55.9021C65.0987 55.8421 65.208 55.7398 65.3562 55.5916V54.438C64.8764 54.438 64.4919 54.4627 64.2026 54.5156" fill="#37D68F"/>
<path d="M79.1791 49.8165V56.1419C79.5354 56.2089 79.7435 56.2513 79.8105 56.2759C79.927 56.3006 79.9869 56.3641 79.9869 56.477V56.9639H77.3234V56.477C77.3234 56.3677 77.3799 56.3006 77.4892 56.2759L78.2336 56.1419V51.1147C78.2336 50.8854 78.2407 50.7126 78.2548 50.5926L75.5242 55.5633C75.436 55.7327 75.309 55.8173 75.1467 55.8173H74.9915C74.8151 55.8173 74.6811 55.7327 74.5893 55.5633L71.8271 50.6032C71.8482 50.7866 71.8588 50.956 71.8588 51.1006V56.1384L72.6138 56.2724C72.709 56.2971 72.7584 56.3606 72.7584 56.4735V56.9603H70.1055V56.4735C70.1055 56.3641 70.1654 56.2971 70.2819 56.2724L70.9028 56.1384V49.813C70.5641 49.7459 70.3559 49.7036 70.2819 49.6789C70.1619 49.6542 70.1055 49.5907 70.1055 49.4778V48.991H71.7036C71.8094 48.991 71.8835 49.0016 71.9258 49.0262C71.9929 49.0545 72.0422 49.1039 72.0705 49.1709L74.8116 54.0781C74.8786 54.1945 74.9633 54.3886 75.0656 54.6531C75.1256 54.4838 75.2102 54.2862 75.3196 54.064L78.0043 49.1709C78.0325 49.1109 78.0854 49.0651 78.1595 49.0262C78.2054 49.0016 78.2795 48.991 78.3818 48.991H79.9799V49.4778C79.9799 49.5872 79.9199 49.6542 79.8035 49.6789L79.172 49.813L79.1791 49.8165Z" fill="#37D68F"/>
<path d="M85.6803 56.3254C85.7085 56.3642 85.7262 56.4101 85.7262 56.463V56.9393H84.5725C84.5055 56.9393 84.4279 56.9252 84.3397 56.8934C84.2868 56.8793 84.2515 56.8193 84.2303 56.717L84.121 56.1843L83.6765 56.5512C83.5495 56.6535 83.4013 56.7452 83.232 56.8193C83.0697 56.8934 82.9039 56.9498 82.7451 56.9851C82.597 57.0204 82.3959 57.0416 82.1454 57.0416C81.9373 57.0416 81.7362 57.0063 81.5457 56.9428C81.3164 56.8616 81.1505 56.7735 81.0482 56.6747C80.9142 56.5547 80.8048 56.3995 80.7166 56.209C80.6355 56.0397 80.5967 55.8174 80.5967 55.5422C80.5967 55.3059 80.6567 55.0907 80.7731 54.9002C80.9071 54.685 81.1047 54.5015 81.3728 54.3463C81.6691 54.177 82.0254 54.0429 82.4382 53.9477C82.8651 53.8489 83.4084 53.803 84.0575 53.803V53.3691C84.0575 52.9316 83.9587 52.6 83.7682 52.3707C83.5742 52.1414 83.2955 52.0285 82.9356 52.0285C82.6993 52.0285 82.4947 52.0638 82.3253 52.1273C82.1313 52.2014 81.9937 52.2684 81.902 52.3284C81.8561 52.3566 81.8067 52.3884 81.7538 52.4236C81.6974 52.4554 81.6409 52.4907 81.5809 52.5295C81.4998 52.5894 81.4151 52.6177 81.3269 52.6177C81.2458 52.6177 81.1858 52.6036 81.1505 52.5718C81.1047 52.5365 81.0694 52.4907 81.0412 52.4377L80.8648 52.1273C81.1541 51.8451 81.4857 51.6228 81.8632 51.4605C82.2018 51.3124 82.604 51.2383 83.0626 51.2383C83.3943 51.2383 83.6765 51.2877 83.9058 51.3935C84.1563 51.5029 84.3609 51.644 84.5161 51.8133C84.6784 51.9827 84.8054 52.2049 84.8936 52.4801C84.9747 52.7235 85.0135 53.0128 85.0135 53.3444V56.1526C85.3698 56.2266 85.5533 56.269 85.5674 56.276V56.2513C85.6203 56.2584 85.6626 56.2831 85.6909 56.3254M82.8721 54.5121C82.5899 54.565 82.3324 54.6426 82.096 54.7449C81.8879 54.8437 81.7397 54.9531 81.6515 55.0766C81.5633 55.2106 81.5174 55.3517 81.5174 55.4999C81.5174 55.6199 81.5421 55.7433 81.5951 55.8774C81.6374 55.9867 81.7044 56.0785 81.7926 56.1455C81.8808 56.2125 81.9761 56.2619 82.0819 56.2901C82.2054 56.3254 82.3288 56.3466 82.4453 56.3466C82.5934 56.3466 82.7487 56.3289 82.9109 56.2901C83.0591 56.2549 83.1967 56.2055 83.3237 56.1455C83.4331 56.0926 83.5565 56.0114 83.6871 55.9021C83.7611 55.8421 83.8705 55.7398 84.0187 55.5916V54.438C83.5389 54.438 83.1544 54.4627 82.8651 54.5156" fill="#37D68F"/>
<path d="M89.8395 51.2383C90.1288 51.2383 90.3828 51.3053 90.605 51.4394L90.4851 52.1802C90.4639 52.279 90.4145 52.3249 90.3404 52.3249C90.291 52.3249 90.1993 52.3072 90.0723 52.2684C89.9489 52.2331 89.7936 52.212 89.6172 52.212C88.9646 52.212 88.4848 52.6036 88.1744 53.3903V56.1631L88.8058 56.2831C88.9152 56.3078 88.9716 56.3748 88.9716 56.4948V56.9604H86.3857V56.4948C86.3857 56.3748 86.4422 56.3078 86.5551 56.2831L87.1866 56.1631V52.1555C86.8338 52.0885 86.6221 52.0462 86.5551 52.0215C86.4422 52.0003 86.3857 51.9297 86.3857 51.8133V51.3476H87.751C87.8533 51.3476 87.9239 51.3653 87.9627 51.4041C87.998 51.4394 88.0297 51.5134 88.0509 51.6158L88.1179 52.4907H88.1285C88.5412 51.6546 89.1128 51.2383 89.836 51.2383" fill="#37D68F"/>
<path d="M96.9096 56.4772V56.964H95.8653C95.7242 56.964 95.5972 56.897 95.4878 56.7629L93.6463 54.4557C93.5934 54.3816 93.5369 54.3358 93.4805 54.3111C93.4205 54.2899 93.3359 54.2793 93.2265 54.2793H92.9584V56.1526C93.0042 56.1526 93.1312 56.1773 93.3464 56.2302L93.5793 56.2726C93.6957 56.2972 93.7557 56.3678 93.7557 56.4842V56.9605H91.1592V56.4842C91.1592 56.3678 91.2156 56.2972 91.325 56.2726L91.9565 56.1526V49.5944C91.6002 49.5273 91.3885 49.485 91.325 49.4603C91.2156 49.4356 91.1592 49.3721 91.1592 49.2592V48.783H92.9584V53.5879H93.2018C93.357 53.5879 93.477 53.535 93.5581 53.4326L94.8211 52.078C94.7999 52.078 94.7787 52.078 94.754 52.0674C94.7329 52.0603 94.7082 52.0568 94.687 52.0568L94.5106 52.0215C94.3907 52.0003 94.3307 51.9298 94.3307 51.8098V51.3442H96.6838V51.8098C96.6838 51.9192 96.6344 51.9862 96.5391 52.0109L95.8512 52.145L94.5389 53.542C94.4189 53.6831 94.3131 53.7819 94.2178 53.8419C94.366 53.9371 94.4754 54.0535 94.5494 54.1841L96.1052 56.1597L96.3945 56.2055C96.5885 56.2514 96.7049 56.2726 96.7508 56.2726H96.7402C96.8496 56.2972 96.906 56.3607 96.906 56.4736" fill="#37D68F"/>
<path d="M100.66 51.4253C100.956 51.5347 101.199 51.6934 101.393 51.9016C101.616 52.1379 101.778 52.399 101.88 52.6883C101.997 53.0234 102.057 53.3762 102.057 53.7537C102.057 53.923 102.042 54.0289 102.011 54.0641C101.975 54.1135 101.908 54.1418 101.813 54.1418H98.0843C98.0843 54.4981 98.1266 54.8085 98.2183 55.0731C98.2924 55.3024 98.4194 55.5176 98.5958 55.7152C98.7581 55.9021 98.945 56.0327 99.1497 56.1173C99.3719 56.2055 99.6083 56.2514 99.8588 56.2514C100.127 56.2514 100.342 56.2267 100.501 56.1738C100.656 56.1209 100.811 56.0574 100.967 55.9833C101.129 55.9021 101.238 55.8422 101.298 55.8069C101.393 55.7469 101.467 55.7187 101.52 55.7187C101.602 55.7187 101.665 55.754 101.707 55.8175L101.986 56.1844C101.88 56.3184 101.732 56.4419 101.542 56.5619C101.319 56.703 101.139 56.7947 100.995 56.8406C100.772 56.9146 100.575 56.9676 100.399 56.9958C100.176 57.0311 99.9716 57.0522 99.7882 57.0522C99.4037 57.0522 99.0438 56.9852 98.7122 56.8511C98.3947 56.7241 98.109 56.5301 97.8585 56.262C97.6221 56.0186 97.4351 55.7046 97.3011 55.3201C97.167 54.9426 97.1035 54.5122 97.1035 54.0324C97.1035 53.6479 97.167 53.2845 97.2905 52.9458C97.4175 52.5966 97.5904 52.3038 97.8126 52.0603C98.0419 51.8099 98.3206 51.6123 98.6452 51.4712C98.9697 51.3301 99.3331 51.2595 99.7318 51.2595C100.06 51.2595 100.363 51.316 100.653 51.4253M98.6416 52.392C98.3665 52.6812 98.1971 53.0658 98.1301 53.5456H101.182C101.182 53.3162 101.146 53.1081 101.083 52.9247C101.002 52.6954 100.914 52.5295 100.815 52.4237C100.688 52.2896 100.536 52.1838 100.36 52.1027C100.19 52.0286 99.9858 51.9933 99.7494 51.9933L99.76 51.9792C99.2767 51.9792 98.9062 52.1168 98.6381 52.392" fill="#37D68F"/>
<path d="M103.736 56.6747C103.499 56.4384 103.379 56.0821 103.379 55.6093V52.1697H102.702C102.635 52.1697 102.582 52.1556 102.547 52.1238C102.511 52.0956 102.49 52.0392 102.49 51.958V51.57L103.411 51.45L103.633 49.7073C103.633 49.6473 103.658 49.6014 103.7 49.5732C103.736 49.545 103.788 49.5273 103.856 49.5273H104.356V51.4571H105.965V52.1767H104.356V55.5494C104.356 55.7928 104.409 55.9727 104.522 56.0821C104.635 56.1914 104.787 56.2479 104.977 56.2479C105.059 56.2479 105.15 56.2338 105.256 56.202C105.323 56.1808 105.39 56.1526 105.457 56.1138C105.478 56.0997 105.503 56.0856 105.524 56.0679C105.545 56.0538 105.57 56.0397 105.591 56.0221C105.651 55.9939 105.686 55.9762 105.701 55.9762C105.753 55.9762 105.799 56.008 105.835 56.0644L106.124 56.5301C105.923 56.6994 105.718 56.8264 105.503 56.9076C105.26 56.9958 105.009 57.0416 104.759 57.0416C104.328 57.0416 103.99 56.9146 103.739 56.6642" fill="#37D68F"/>
<path d="M110.404 51.5593V53.0022H109.97C109.867 53.0022 109.804 52.9492 109.779 52.8469L109.712 52.1131C109.363 52.032 109.077 51.9932 108.848 51.9932H108.837C108.534 51.9932 108.28 52.0743 108.072 52.2366C107.871 52.3918 107.772 52.5612 107.772 52.7482C107.772 52.9351 107.818 53.0798 107.906 53.1715C108.054 53.3408 108.269 53.4714 108.548 53.5596L108.88 53.6583C108.94 53.6725 109.056 53.7077 109.232 53.7677L109.765 53.9653C109.913 54.0182 110.068 54.1134 110.231 54.2545C110.534 54.4909 110.686 54.8155 110.686 55.2318C110.686 55.7715 110.502 56.2019 110.142 56.5194C109.751 56.8687 109.257 57.0415 108.657 57.0415C108.058 57.0415 107.437 56.9427 106.837 56.7417V55.2776H107.239C107.327 55.2776 107.384 55.32 107.405 55.4117L107.472 56.1208C107.768 56.2689 108.149 56.343 108.615 56.343C108.971 56.343 109.257 56.2513 109.479 56.0643C109.673 55.895 109.769 55.7045 109.769 55.4999C109.769 55.2953 109.723 55.1294 109.634 55.0342C109.529 54.9142 109.419 54.8261 109.303 54.7661C109.141 54.6849 108.985 54.625 108.837 54.5897C108.29 54.4133 107.945 54.2933 107.804 54.2334C107.627 54.1522 107.461 54.0499 107.306 53.9229C106.996 53.6654 106.84 53.3161 106.84 52.8787C106.84 52.4412 107.02 52.0567 107.373 51.7498C107.744 51.4217 108.266 51.2629 108.94 51.2629C109.324 51.2629 109.814 51.3617 110.404 51.5628" fill="#37D68F"/>
<path d="M33.7648 88.3653C33.7648 90.8242 31.7716 92.821 29.3092 92.821C26.8467 92.821 24.8535 90.8277 24.8535 88.3653C24.8535 85.9029 26.8467 83.9097 29.3092 83.9097C31.7716 83.9097 33.7648 85.9029 33.7648 88.3653Z" fill="white"/>
<path d="M190.718 31.3977H184.682V25.3616C184.682 24.3279 183.994 23.6365 182.957 23.6365C181.92 23.6365 181.232 24.3244 181.232 25.3616V31.3977H175.196C174.162 31.3977 173.471 32.0856 173.471 33.1228C173.471 34.16 174.159 34.8479 175.196 34.8479H181.232V40.8841C181.232 41.9177 181.92 42.6092 182.957 42.6092C183.994 42.6092 184.682 41.9212 184.682 40.8841V34.8479H190.718C191.752 34.8479 192.443 34.16 192.443 33.1228C192.443 32.0856 191.755 31.3977 190.718 31.3977Z" fill="#37D68F"/>
</g>
<defs>
<clipPath id="clip0_2219_908">
<rect width="192.44" height="100" fill="white"/>
</clipPath>
</defs>
</svg>
