<svg width="68" height="68" viewBox="0 0 68 68" fill="none" xmlns="http://www.w3.org/2000/svg">
<path d="M34 14.875C26.9698 14.875 21.25 20.5948 21.25 27.625C21.25 34.6552 26.9698 40.375 34 40.375C41.0302 40.375 46.75 34.6552 46.75 27.625C46.75 20.5948 41.0302 14.875 34 14.875ZM37.1875 32.9375C37.7743 32.9375 38.25 33.4132 38.25 34C38.25 34.5868 37.7743 35.0625 37.1875 35.0625H30.8125C30.4099 35.0625 30.0421 34.8353 29.8621 34.4752C29.682 34.1152 29.721 33.6846 29.9627 33.3624L35.7001 25.7122C35.974 25.347 36.125 24.8946 36.125 24.4375C36.125 23.2655 35.172 22.3125 34 22.3125C32.828 22.3125 31.875 23.2655 31.875 24.4375C31.875 25.0243 31.3993 25.5 30.8125 25.5C30.2257 25.5 29.75 25.0243 29.75 24.4375C29.75 22.0941 31.6566 20.1875 34 20.1875C36.3434 20.1875 38.25 22.0941 38.25 24.4375C38.25 25.3516 37.9481 26.2574 37.3997 26.9879L32.9375 32.9375H37.1875Z" fill="#7B7977"/>
<path d="M53.1906 23.9062C52.7253 23.0995 52.4788 22.1812 52.4788 21.2499C52.4788 18.601 51.0537 16.133 48.7601 14.8085C47.9534 14.3432 47.2815 13.6713 46.8162 12.8646C45.4917 10.571 43.0237 9.14585 40.3747 9.14585C39.4435 9.14585 38.5252 8.89942 37.7185 8.43406C35.4244 7.11009 32.5751 7.10905 30.281 8.43406C29.4743 8.89942 28.556 9.14585 27.6247 9.14585C24.9758 9.14585 22.5078 10.571 21.1833 12.8646C20.718 13.6713 20.0461 14.3432 19.2394 14.8085C16.9458 16.133 15.5207 18.601 15.5207 21.2499C15.5207 22.1812 15.2742 23.0995 14.8083 23.9062C13.4844 26.1998 13.4844 29.0501 14.8089 31.3437C15.2742 32.1504 15.5207 33.0687 15.5207 33.9999C15.5207 36.6489 16.9458 39.1169 19.2394 40.4413C20.0461 40.9067 20.718 41.5786 21.1833 42.3853C22.5078 44.6789 24.9758 46.104 27.6247 46.104C28.556 46.104 29.4743 46.3505 30.281 46.8163C31.4281 47.4783 32.7136 47.8093 33.9997 47.8093C35.2859 47.8093 36.5714 47.4783 37.7185 46.8158C38.5252 46.3505 39.4435 46.104 40.3747 46.104C43.0237 46.104 45.4917 44.6789 46.8162 42.3853C47.2815 41.5786 47.9534 40.9067 48.7601 40.4413C51.0537 39.1169 52.4788 36.6489 52.4788 33.9999C52.4788 33.0687 52.7253 32.1504 53.1912 31.3437C54.5151 29.0501 54.5151 26.1998 53.1906 23.9062ZM33.9997 42.4999C25.7975 42.4999 19.1247 35.8272 19.1247 27.6249C19.1247 19.4227 25.7975 12.7499 33.9997 12.7499C42.202 12.7499 48.8747 19.4227 48.8747 27.6249C48.8747 35.8272 42.202 42.4999 33.9997 42.4999Z" fill="#7B7977"/>
<path d="M27.625 48.2266C27.625 48.2266 27.625 59.4896 27.625 59.4997C27.625 60.2441 28.3885 60.7557 29.0806 60.4878L32.9375 58.9467V49.8669C31.6288 49.7196 30.3572 49.3128 29.2188 48.6515C28.73 48.3753 28.1882 48.2266 27.625 48.2266Z" fill="#7B7977"/>
<path d="M35.0625 49.8669V58.9467C35.0625 58.9467 38.9065 60.4826 38.9194 60.4878C39.6021 60.7605 40.375 60.2362 40.375 59.4997V48.2266C39.8118 48.2266 39.27 48.3753 38.7812 48.6515C37.6428 49.3128 36.3712 49.7196 35.0625 49.8669Z" fill="#7B7977"/>
<path d="M42.5 54.3153L45.1031 53.0085C45.4644 52.8384 45.6875 52.4666 45.6875 52.0628V46.6016C44.7312 47.2603 43.6475 47.7278 42.5 47.9828V54.3153Z" fill="#7B7977"/>
<path d="M22.3125 52.0628C22.3125 52.4666 22.5356 52.8384 22.8969 53.0085L25.5 54.3153V47.9828C24.3525 47.7278 23.2688 47.2603 22.3125 46.6016V52.0628Z" fill="#7B7977"/>
</svg>
