<svg width="32" height="32" viewBox="0 0 32 32" fill="none" xmlns="http://www.w3.org/2000/svg">
<mask id="mask0_2356_4519" style="mask-type:alpha" maskUnits="userSpaceOnUse" x="0" y="0" width="32" height="32">
<rect width="32" height="32" fill="#D9D9D9"/>
</mask>
<g mask="url(#mask0_2356_4519)">
<path d="M20.6667 26.5666L15 20.9L16.8667 19.0333L20.6667 22.8333L28.2 15.3L30.0667 17.1666L20.6667 26.5666ZM28 13.3333H25.3333V6.66665H22.6667V10.6666H9.33333V6.66665H6.66667V25.3333H14.6667V28H6.66667C5.93333 28 5.30556 27.7389 4.78333 27.2166C4.26111 26.6944 4 26.0666 4 25.3333V6.66665C4 5.93331 4.26111 5.30554 4.78333 4.78331C5.30556 4.26109 5.93333 3.99998 6.66667 3.99998H12.2333C12.4778 3.2222 12.9556 2.58331 13.6667 2.08331C14.3778 1.58331 15.1556 1.33331 16 1.33331C16.8889 1.33331 17.6833 1.58331 18.3833 2.08331C19.0833 2.58331 19.5556 3.2222 19.8 3.99998H25.3333C26.0667 3.99998 26.6944 4.26109 27.2167 4.78331C27.7389 5.30554 28 5.93331 28 6.66665V13.3333ZM16 6.66665C16.3778 6.66665 16.6944 6.53887 16.95 6.28331C17.2056 6.02776 17.3333 5.71109 17.3333 5.33331C17.3333 4.95553 17.2056 4.63887 16.95 4.38331C16.6944 4.12776 16.3778 3.99998 16 3.99998C15.6222 3.99998 15.3056 4.12776 15.05 4.38331C14.7944 4.63887 14.6667 4.95553 14.6667 5.33331C14.6667 5.71109 14.7944 6.02776 15.05 6.28331C15.3056 6.53887 15.6222 6.66665 16 6.66665Z" fill="#E6ECF1"/>
</g>
</svg>
