<svg width="49" height="48" viewBox="0 0 49 48" fill="none" xmlns="http://www.w3.org/2000/svg">
<mask id="mask0_2876_41758" style="mask-type:alpha" maskUnits="userSpaceOnUse" x="0" y="0" width="49" height="48">
<rect x="0.5" width="48" height="48" fill="#D9D9D9"/>
</mask>
<g mask="url(#mask0_2876_41758)">
<path d="M22.5 32V15.7L17.3 20.9L14.5 18L24.5 8L34.5 18L31.7 20.9L26.5 15.7V32H22.5ZM12.5 40C11.4 40 10.4583 39.6083 9.675 38.825C8.89167 38.0417 8.5 37.1 8.5 36V30H12.5V36H36.5V30H40.5V36C40.5 37.1 40.1083 38.0417 39.325 38.825C38.5417 39.6083 37.6 40 36.5 40H12.5Z" fill="#896DFF"/>
</g>
</svg>
