<svg width="32" height="32" viewBox="0 0 32 32" fill="none" xmlns="http://www.w3.org/2000/svg">
<path d="M22.7184 18.0892C22.6639 18.063 20.6226 17.0578 20.2599 16.9273C20.1118 16.8741 19.9532 16.8222 19.7844 16.8222C19.5088 16.8222 19.2773 16.9595 19.0969 17.2294C18.893 17.5324 18.2757 18.254 18.085 18.4695C18.0601 18.498 18.0261 18.532 18.0057 18.532C17.9874 18.532 17.6715 18.4019 17.5759 18.3604C15.3862 17.4092 13.7241 15.1218 13.4962 14.7361C13.4636 14.6806 13.4622 14.6554 13.462 14.6554C13.47 14.6261 13.5436 14.5523 13.5816 14.5142C13.6928 14.4042 13.8132 14.2592 13.9298 14.1189C13.985 14.0524 14.0402 13.9859 14.0945 13.9232C14.2636 13.7264 14.3389 13.5737 14.4262 13.3968L14.4719 13.3049C14.685 12.8815 14.503 12.5243 14.4442 12.4089C14.3959 12.3124 13.534 10.2322 13.4423 10.0136C13.222 9.48627 12.9308 9.24072 12.5262 9.24072C12.4886 9.24072 12.5262 9.24072 12.3687 9.24736C12.177 9.25545 11.1329 9.3929 10.6712 9.6839C10.1817 9.99254 9.35352 10.9764 9.35352 12.7065C9.35352 14.2637 10.3417 15.734 10.766 16.2932C10.7765 16.3073 10.7959 16.3359 10.824 16.377C12.4488 18.7499 14.4743 20.5084 16.5277 21.3287C18.5045 22.1184 19.4406 22.2096 19.9728 22.2096H19.9729C20.1965 22.2096 20.3755 22.1921 20.5334 22.1765L20.6336 22.167C21.3165 22.1064 22.8173 21.3288 23.1586 20.3802C23.4275 19.633 23.4984 18.8166 23.3195 18.5204C23.197 18.3189 22.9858 18.2175 22.7184 18.0892Z" fill="#E6ECF1"/>
<path d="M16.2485 2C8.66526 2 2.4958 8.12309 2.4958 15.6494C2.4958 18.0836 3.14725 20.4665 4.38134 22.5519L2.01925 29.5196C1.97525 29.6495 2.00798 29.7932 2.10407 29.891C2.17343 29.9618 2.26752 30 2.36362 30C2.40043 30 2.43752 29.9945 2.47371 29.9829L9.73917 27.6742C11.7274 28.7365 13.9744 29.2972 16.2486 29.2972C23.8312 29.2973 30 23.1748 30 15.6494C30 8.12309 23.8312 2 16.2485 2ZM16.2485 26.454C14.1086 26.454 12.036 25.8361 10.2543 24.667C10.1944 24.6276 10.1249 24.6075 10.0549 24.6075C10.0179 24.6075 9.9808 24.6131 9.94471 24.6245L6.30516 25.7815L7.48007 22.3152C7.51807 22.203 7.49907 22.0793 7.42907 21.9836C6.07235 20.1298 5.35516 17.9395 5.35516 15.6494C5.35516 9.69091 10.2419 4.84327 16.2484 4.84327C22.2543 4.84327 27.1405 9.69091 27.1405 15.6494C27.1405 21.6071 22.2544 26.454 16.2485 26.454Z" fill="#E6ECF1"/>
</svg>
